<?xml version="1.0" encoding="utf-8"?>
<svg version="1.1" id="Layer_1" xmlns="http://www.w3.org/2000/svg" xmlns:xlink="http://www.w3.org/1999/xlink" x="0px" y="0px"
	 viewBox="0 0 64 64" style="enable-background:new 0 0 64 64;" xml:space="preserve">

<rect class="st0" x="0" y="0" rx="15" ry="15" width="64" height="64" fill="#00a7e9"/>
<!-- <text x="15" y ="53"   fill="white" font-family="Purisa" font-size="53" >R</text>  -->
<path fill="white" d="M18.02 20.03L18.02 20.03L18.02 20.03Q18.02 19.13 20.41 16.43L20.41 16.43L20.41 16.43Q22.79 13.73 23.43 13.73L23.43 13.73L23.43 13.73Q25.44 13.73 32.22 14.58L32.22 14.58L32.22 14.58Q39.01 15.42 40.33 15.85L40.33 15.85L40.33 15.85Q43.88 16.85 43.88 20.67L43.88 20.67L43.88 20.67Q43.88 22.47 43.01 24.35L43.01 24.35L43.01 24.35Q42.14 26.23 41.08 27.48L41.08 27.48L41.08 27.48Q40.02 28.73 39.14 29.79L39.14 29.79L39.14 29.79Q38.27 30.85 38.27 31.11L38.27 31.11L38.27 31.11Q38.27 31.48 35.22 33.47L35.22 33.47L35.22 33.47Q32.17 35.46 29.84 36.68L29.84 36.68L29.84 36.68Q27.93 37.74 27.93 38.00L27.93 38.00L27.93 38.00Q27.93 38.11 29.92 38.77L29.92 38.77L29.92 38.77Q31.91 39.43 34.72 40.55L34.72 40.55L34.72 40.55Q37.52 41.66 39.06 42.72L39.06 42.72L39.06 42.72Q41.50 44.41 42.03 44.41L42.03 44.41L42.03 44.41Q42.77 44.47 44.44 46.19L44.44 46.19L44.44 46.19Q46.11 47.91 46.11 48.65L46.11 48.65L46.11 48.65Q46.11 49.98 45.16 49.98L45.16 49.98L45.16 49.98Q44.31 49.98 42.48 49.00L42.48 49.00L42.48 49.00Q40.65 48.02 37.47 46.30L37.47 46.30L37.47 46.30Q34.29 44.57 31.22 43.35L31.22 43.35L27.08 41.71L27.30 47.91L27.30 47.91Q27.35 49.29 27.35 51.89L27.35 51.89L27.35 51.89Q27.35 53.16 27.08 53.72L27.08 53.72L27.08 53.72Q26.82 54.27 25.92 54.27L25.92 54.27L25.92 54.27Q23.90 54.27 23.90 47.81L23.90 47.81L23.90 47.81Q23.90 41.02 21.73 40.02L21.73 40.02L21.73 40.02Q20.14 39.33 20.14 38.11L20.14 38.11L20.14 38.11Q20.14 36.99 21.68 36.25L21.68 36.25L23.43 35.46L23.00 29.41L23.00 29.41Q22.68 24.59 22.34 22.71L22.34 22.71L22.34 22.71Q22.00 20.83 21.41 20.83L21.41 20.83L21.41 20.83Q21.25 20.83 20.78 21.20L20.78 21.20L20.78 21.20Q20.30 21.57 19.61 21.57L19.61 21.57L19.61 21.57Q18.98 21.57 18.50 21.15L18.50 21.15L18.50 21.15Q18.02 20.72 18.02 20.03ZM40.76 20.30L40.76 20.30L40.76 20.30Q40.76 20.09 40.60 19.95L40.60 19.95L40.60 19.95Q40.44 19.82 39.54 19.53L39.54 19.53L39.54 19.53Q38.64 19.24 36.84 18.71L36.84 18.71L36.84 18.71Q33.23 17.70 29.52 17.70L29.52 17.70L25.71 17.70L26.08 20.56L26.08 20.56Q26.24 21.62 26.55 25.04L26.55 25.04L26.55 25.04Q26.87 28.46 27.14 31.08L27.14 31.08L27.14 31.08Q27.40 33.71 27.51 33.71L27.51 33.71L27.51 33.71Q28.25 33.71 31.43 31.96L31.43 31.96L31.43 31.96Q34.61 30.21 35.88 29.04L35.88 29.04L35.88 29.04Q37.26 27.82 39.01 24.64L39.01 24.64L39.01 24.64Q40.76 21.46 40.76 20.30Z"/>
</svg>
